<svg id="visual" viewBox="0 0 960 540" width="960" height="540" xmlns="http://www.w3.org/2000/svg" xmlns:xlink="http://www.w3.org/1999/xlink" version="1.1"><path d="M0 425L22.8 414.3C45.7 403.7 91.3 382.3 137 388.8C182.7 395.3 228.3 429.7 274 432.7C319.7 435.7 365.3 407.3 411.2 398.7C457 390 503 401 548.8 406.3C594.7 411.7 640.3 411.3 686 408.3C731.7 405.3 777.3 399.7 823 404.3C868.7 409 914.3 424 937.2 431.5L960 439L960 541L937.2 541C914.3 541 868.7 541 823 541C777.3 541 731.7 541 686 541C640.3 541 594.7 541 548.8 541C503 541 457 541 411.2 541C365.3 541 319.7 541 274 541C228.3 541 182.7 541 137 541C91.3 541 45.7 541 22.8 541L0 541Z" fill="rgba(176,179,186,0.081)" stroke-linecap="round" stroke-linejoin="miter"></path></svg>