<svg width="1506" height="1712" viewBox="0 0 1506 1712" fill="none" xmlns="http://www.w3.org/2000/svg">
<g clip-path="url(#clip0_439_8)">
<path d="M0 3.72556C168.27 -3.36303 336.877 5.75088 505.315 2.88169C691.137 -3.02546 876.791 1.86903 1062.78 2.54413C1210.29 2.88168 1357.8 1.86901 1505.31 3.05044C1458.9 514.948 1412.15 1026.84 1369.11 1539.08C1171.47 1595.28 973.668 1650.64 776.032 1706.51C750.715 1716.97 724.724 1707.18 700.42 1700.6C512.572 1646.59 324.725 1593.09 136.54 1541.1C87.5946 1029.04 41.5189 516.467 0 3.72556ZM755.778 137.227C748.858 389.716 754.766 642.205 752.74 894.693C754.597 1125.58 749.365 1356.63 755.441 1587.52C921.516 1548.36 1085.4 1500.26 1249.28 1452.84C1290.46 1014.52 1330.63 576.213 1365.06 137.396C1162.02 135.371 958.816 137.734 755.778 137.227ZM544.471 1123.22C446.919 1096.55 350.548 1065.83 251.645 1044.74C248.776 1103.47 249.788 1162.2 256.54 1220.6C401.349 1255.87 543.121 1302.29 688.099 1336.89C689.112 1002.54 687.593 668.027 688.774 333.682C641.517 332.501 594.26 331.826 547.003 330.813C541.602 594.779 546.665 859.082 544.471 1123.22Z" fill="#D6BA32"/>
<rect width="491.326" height="1094.51" transform="translate(810.282 243.987) rotate(3)" fill="white"/>
<path d="M755.781 137.229C958.818 137.736 1162.02 135.373 1365.06 137.398C1330.63 576.215 1290.46 1014.53 1249.28 1452.84C1085.4 1500.26 921.519 1548.36 755.444 1587.52C749.368 1356.63 754.6 1125.58 752.743 894.695C754.769 642.207 748.861 389.718 755.781 137.229ZM812.658 333.516C813.334 550.899 813.502 768.451 812.658 985.834C911.899 969.801 1010.8 951.404 1109.7 933.345C1108.19 983.978 1106.16 1034.61 1103.97 1085.24C1007.59 1110.9 911.393 1137.4 814.515 1161.19C812.996 1219.59 812.827 1277.99 813.334 1336.55C935.359 1309.21 1055.53 1274.78 1176.71 1244.23C1191.9 1237.14 1221.1 1237.99 1219.75 1214.19C1234.43 1057.9 1243.54 900.94 1257.72 744.316C1157.3 752.586 1057.89 769.464 957.468 776.384C956.625 687.608 956.456 598.831 957.806 510.055C1063.46 510.055 1168.94 510.055 1274.6 510.224C1281.35 450.984 1287.26 391.575 1291.81 332.166C1132.15 332.841 972.32 330.646 812.658 333.516Z" fill="#FFDA3E"/>
<path d="M544.471 1123.22C546.665 859.082 541.602 594.779 547.003 330.813C594.26 331.826 641.517 332.502 688.774 333.683C687.593 668.028 689.112 1002.54 688.099 1336.89C543.121 1302.29 401.35 1255.87 256.54 1220.6C249.789 1162.2 248.776 1103.47 251.645 1044.74C350.548 1065.83 446.919 1096.55 544.471 1123.22Z" fill="#EBEBEB"/>
</g>
<defs>
<clipPath id="clip0_439_8">
<rect width="1505.31" height="1711.1" fill="white"/>
</clipPath>
</defs>
</svg>
