
<svg width="2714" height="2785" viewBox="0 0 2714 2785" fill="none" xmlns="http://www.w3.org/2000/svg">
<path d="M2562.34 712.124C2563.23 715.437 2563.69 718.852 2563.7 722.284V1255.64C2563.7 1262.48 2561.89 1269.21 2558.46 1275.13C2555.03 1281.05 2550.1 1285.97 2544.16 1289.37L2096.51 1547.1V2057.95C2096.51 2071.85 2089.12 2084.69 2077.06 2091.69L1142.62 2629.61C1140.49 2630.82 1138.15 2631.6 1135.82 2632.43C1134.94 2632.72 1134.12 2633.26 1133.19 2633.5C1126.66 2635.22 1119.8 2635.22 1113.26 2633.5C1112.19 2633.21 1111.22 2632.62 1110.2 2632.23C1108.06 2631.46 1105.83 2630.78 1103.78 2629.61L169.541 2091.69C163.606 2088.28 158.675 2083.36 155.244 2077.44C151.814 2071.52 150.005 2064.8 150 2057.95V457.892C150 454.392 150.486 450.989 151.361 447.684C151.653 446.566 152.333 445.545 152.722 444.427C153.451 442.385 154.132 440.295 155.201 438.399C155.93 437.135 157 436.114 157.875 434.948C158.993 433.392 160.014 431.788 161.326 430.427C162.444 429.309 163.903 428.483 165.166 427.51C166.576 426.344 167.84 425.08 169.444 424.156L636.639 155.195C642.553 151.791 649.258 150 656.083 150C662.907 150 669.612 151.791 675.527 155.195L1142.67 424.156H1142.77C1144.33 425.129 1145.64 426.344 1147.05 427.462C1148.31 428.434 1149.72 429.309 1150.84 430.378C1152.2 431.788 1153.17 433.392 1154.34 434.948C1155.17 436.114 1156.28 437.135 1156.96 438.399C1158.08 440.344 1158.71 442.385 1159.49 444.427C1159.88 445.545 1160.56 446.566 1160.85 447.732C1161.75 451.045 1162.21 454.461 1162.21 457.892V1457.27L1551.49 1233.13V722.235C1551.49 718.832 1551.97 715.381 1552.85 712.124C1553.19 710.958 1553.82 709.937 1554.21 708.819C1554.99 706.777 1555.67 704.687 1556.74 702.791C1557.46 701.527 1558.53 700.506 1559.36 699.34C1560.53 697.784 1561.5 696.18 1562.86 694.819C1563.98 693.701 1565.39 692.875 1566.65 691.902C1568.11 690.736 1569.37 689.472 1570.93 688.548L2038.17 419.587C2044.09 416.179 2050.79 414.384 2057.62 414.384C2064.44 414.384 2071.15 416.179 2077.06 419.587L2544.21 688.548C2545.86 689.52 2547.12 690.736 2548.58 691.854C2549.8 692.826 2551.21 693.701 2552.32 694.77C2553.69 696.18 2554.66 697.784 2555.83 699.34C2556.7 700.506 2557.77 701.527 2558.45 702.791C2559.57 704.687 2560.2 706.777 2560.98 708.819C2561.42 709.937 2562.05 710.958 2562.34 712.124ZM2485.83 1233.13V789.609L2322.35 883.719L2096.51 1013.75V1457.27L2485.87 1233.13H2485.83ZM2018.68 2035.44V1591.63L1796.53 1718.5L1162.17 2080.56V2528.55L2018.68 2035.44ZM227.874 525.217V2035.44L1084.29 2528.5V2080.6L636.882 1827.39L636.736 1827.3L636.541 1827.2C635.034 1826.32 633.771 1825.06 632.361 1823.99C631.146 1823.02 629.736 1822.24 628.666 1821.17L628.569 1821.02C627.305 1819.81 626.43 1818.3 625.361 1816.94C624.389 1815.63 623.222 1814.51 622.444 1813.15L622.396 1813C621.521 1811.55 620.986 1809.8 620.354 1808.14C619.722 1806.68 618.896 1805.32 618.507 1803.77C618.021 1801.92 617.924 1799.93 617.729 1798.03C617.535 1796.57 617.146 1795.11 617.146 1793.66V749.36L391.351 619.278L227.874 525.217ZM656.131 233.847L266.908 457.892L656.034 681.937L1045.21 457.843L656.034 233.847H656.131ZM858.545 1632.08L1084.34 1502.09V525.217L920.863 619.327L695.02 749.36V1726.23L858.545 1632.08ZM2057.62 498.239L1668.44 722.284L2057.62 946.329L2446.74 722.235L2057.62 498.239ZM2018.68 1013.75L1792.84 883.719L1629.36 789.609V1233.13L1855.15 1363.11L2018.68 1457.27V1013.75ZM1123.18 2013.23L1694.01 1687.35L1979.35 1524.5L1590.47 1300.6L1142.72 1558.38L734.637 1793.32L1123.18 2013.23Z" fill="white"/>
</svg>
