<svg width="1435" height="419" viewBox="0 0 1435 419" fill="none" xmlns="http://www.w3.org/2000/svg">
<path d="M0.310771 41.3969C0.310771 31.3169 3.99385 22.9815 11.36 16.3908C18.7262 9.41229 28.0308 5.92306 39.2738 5.92306H194.545C236.415 5.92306 268.788 16.9723 291.662 39.0708C314.923 61.1692 326.554 92.1846 326.554 132.117C326.554 154.991 321.902 174.375 312.597 190.271C303.292 205.778 289.142 218.185 270.145 227.489V229.234C304.262 244.354 321.32 273.043 321.32 315.302V360.662C321.32 379.271 314.729 393.615 301.548 403.695C288.366 413.388 268.982 418.234 243.394 418.234V318.791C243.394 298.243 239.323 283.123 231.182 273.431C223.04 263.738 210.634 258.892 193.963 258.892H77.0739V360.662C77.0739 379.658 70.4831 394.003 57.3015 403.695C44.5077 413.388 25.5108 418.234 0.310771 418.234V41.3969ZM190.474 192.597C209.083 192.597 223.428 187.363 233.508 176.895C243.588 166.04 248.628 150.92 248.628 131.535C248.628 91.9908 229.243 72.2185 190.474 72.2185H77.0739V192.597H190.474ZM389.328 41.3969C389.328 31.7046 393.011 23.3692 400.377 16.3908C408.131 9.41229 417.436 5.92306 428.291 5.92306H687.657C687.657 29.1846 683.587 46.2431 675.445 57.0984C667.691 67.5661 654.897 72.8 637.064 72.8H467.254V173.988H621.944C621.944 197.249 617.873 214.308 609.731 225.163C601.977 235.631 589.184 240.865 571.35 240.865H467.254V346.123H649.276C666.722 346.123 679.322 351.551 687.076 362.406C695.217 372.874 699.288 389.738 699.288 413H428.291C417.436 413 408.131 409.705 400.377 403.114C393.011 396.135 389.328 387.606 389.328 377.526V41.3969ZM900.787 418.234C865.894 418.234 835.461 413.969 809.485 405.44C783.51 396.911 763.544 384.892 749.587 369.385C736.017 353.489 729.233 335.074 729.233 314.138C729.233 282.348 750.75 266.452 793.784 266.452C795.334 295.917 805.221 318.209 823.442 333.329C842.051 348.449 868.027 356.009 901.368 356.009C928.894 356.009 950.217 351.357 965.337 342.052C980.457 332.36 988.017 318.985 988.017 301.926C988.017 290.683 985.11 281.572 979.294 274.594C973.479 267.228 963.593 260.831 949.636 255.403C935.679 249.588 915.325 243.772 888.574 237.957C850.581 229.04 820.534 219.154 798.436 208.298C776.725 197.443 761.024 184.455 751.331 169.335C741.639 153.828 736.793 134.637 736.793 111.763C736.793 89.6646 743.19 70.28 755.984 53.6092C769.165 36.9385 787.581 23.9508 811.23 14.6461C835.267 5.34151 862.793 0.689208 893.808 0.689208C923.661 0.689208 950.217 4.75998 973.479 12.9015C997.128 20.6554 1015.54 31.7046 1028.73 46.0492C1042.29 60.3938 1049.08 76.8708 1049.08 95.48C1049.08 124.169 1028.34 139.095 986.854 140.258C984.528 113.508 975.999 93.9292 961.267 81.5231C946.534 69.1169 924.048 62.9138 893.808 62.9138C867.833 62.9138 847.867 67.1784 833.91 75.7077C819.953 84.2369 812.974 96.2554 812.974 111.763C812.974 122.618 815.688 131.729 821.116 139.095C826.544 146.074 835.654 152.277 848.448 157.705C861.242 162.745 879.464 167.978 903.113 173.406C943.045 182.323 974.642 192.403 997.904 203.646C1021.17 214.502 1038.03 227.877 1048.5 243.772C1058.97 259.28 1064.2 278.471 1064.2 301.345C1064.2 324.994 1057.41 345.735 1043.85 363.569C1030.66 381.015 1011.67 394.585 986.854 404.277C962.43 413.582 933.741 418.234 900.787 418.234ZM1216.23 73.3815H1076.08C1076.08 28.4092 1096.43 5.92306 1137.14 5.92306H1434.3C1434.3 50.8954 1413.76 73.3815 1372.66 73.3815H1294.15V360.662C1294.15 379.271 1287.56 393.615 1274.38 403.695C1261.2 413.388 1241.81 418.234 1216.23 418.234V73.3815Z" fill="#69E3FF"/>
</svg>
